<?xml version="1.0" encoding="UTF-8"?>
<!DOCTYPE svg PUBLIC "-//W3C//DTD SVG 1.1//EN" "http://www.w3.org/Graphics/SVG/1.1/DTD/svg11.dtd">
<!-- Creator: CorelDRAW 2018 (64-Bit) -->
<svg xmlns="http://www.w3.org/2000/svg" xml:space="preserve" width="903mm" height="385mm" version="1.1" style="shape-rendering:geometricPrecision; text-rendering:geometricPrecision; image-rendering:optimizeQuality; fill-rule:evenodd; clip-rule:evenodd"
viewBox="0 0 9030 3850"
 xmlns:xlink="http://www.w3.org/1999/xlink">
 <defs>
  <style type="text/css">
   <![CDATA[
    .str2 {stroke:#2B2A29;stroke-width:15;stroke-miterlimit:22.9256}
    .str0 {stroke:#2B2A29;stroke-width:2;stroke-miterlimit:22.9256}
    .str1 {stroke:#949EA5;stroke-width:2;stroke-miterlimit:22.9256}
    .fil6 {fill:none}
    .fil5 {fill:#727271}
    .fil0 {fill:#434242}
    .fil2 {fill:#363436}
    .fil1 {fill:#606062}
    .fil3 {fill:#949EA4}
    .fil4 {fill:#949EA5}
   ]]>
  </style>
 </defs>
 <g id="Слой_x0020_1">
  <metadata id="CorelCorpID_0Corel-Layer"/>
  <g id="_2227553258080">
   <path class="fil0 str0" d="M1266.701 175.586c97.899,-6.908 151.176,-56.743 156.177,-153.021l6294.002 0c5.906,82.545 45.366,135.599 128.883,149.937l0 3673.382 -6579.062 0 0 -3670.298z"/>
   <polygon class="fil1" points="1949.836,3365.107 7168.238,3364.477 7167.892,427.881 1949.302,427.878 "/>
   <polygon class="fil2" points="8003.1,331.851 7938.837,330.477 7938.048,407.587 8004.395,409.452 8003.048,472.7 8080.692,473.392 8081.987,410.698 8145.477,408.123 8145.738,331.513 8083.551,329.99 8080.721,265.494 8004.012,265.475 "/>
   <polygon class="fil2" points="966.186,407.93 1173.654,408.678 1173.908,331.278 966.993,330.336 "/>
   <g>
    <path class="fil3" d="M772.142 2624.676l3.562 -5.78c-1.646,-6.972 -2.773,-5.48 4.228,-3.571l6.887 -3.449c33.268,-3.883 196.437,-4.02 221.005,2.92 13.362,27.768 6.57,79.87 6.57,115.907 0,36.695 7.509,91.768 -6.913,119.66 -15.406,4.448 -220.603,12.958 -233.387,-5.971 -6.203,-22.723 -5.246,-190.493 -1.952,-219.716zm46.232 -283.488l-5.667 7.748 -11.608 26.257 -3.834 6.804c1.709,7.25 3.36,5.66 -3.789,5.66l-22.427 23.537c0,7.403 1.76,5.887 -5.541,4.217l-6.287 1.886 -7.506 4.374c-35.557,31.675 -86.944,17.655 -128.678,10.367 -7.881,0.416 -6.361,2.583 -6.361,-4.499l-1.292 0.454 -6.767 -6.735c-9.925,-1.006 -5.35,2.872 -6.124,-5.634 -6.932,1.735 -5.576,3.578 -5.942,-2.756 -6.998,1.594 -5.597,3.33 -5.597,-3.355l-19.686 -19.311c-6.659,0 -5.015,1.489 -3.766,-5.403 -6.414,-0.245 -4.536,1.033 -2.496,-5.883l-5.697 -6.313 -4.755 -7.415 -3.367 -8.541c-35.846,-51.16 -2.926,-186.448 114.035,-198.41 54.852,-5.609 100.043,20.418 122.138,47.655 35.276,43.486 36.809,68.858 31.014,135.296zm-351.87 -217.67l-5.928 7.443 -6.552 3.634c-12.92,6.502 -13.673,8.977 -29.079,9.773 -4.119,11.089 -11.169,6.832 -18.691,6.043 -13.242,6.085 -29.929,6.168 -40.903,-0.634l-4.671 2.888c-14.895,-2.471 -10.667,0.336 -17.861,-8.345 -29.651,-1.731 -71.885,-39.768 -78.07,-60.078 -8.41,-5.828 -6.69,-1.087 -9.949,-15.326l-3.205 -8.241c-26.61,-58.017 5.03,-128.627 36.393,-155.501 36.131,-30.96 107.574,-55.774 160.54,-20.605l7.782 3.35 6.231 5.872 6.109 2.06 5.447 2.684c7.686,-1.49 5.733,-3.048 5.733,4.824l13.769 14.454c7.439,0 5.624,-1.662 4.159,6.012l2.115 6.106 4.423 7.262c49.45,56.609 9.632,166.231 -37.792,186.325zm414.174 -25.97c-7.357,0 -5.489,1.493 -3.331,-6.086l-7.119 -5.041 -3.511 -6.884c-88.643,-155.913 137.24,-299.253 240.421,-152.296 50.311,71.656 21.273,154.114 -30.792,195.016 -60.07,47.19 -163.487,28.333 -195.668,-24.709zm-231.711 -515.086c85.718,-20.172 154.286,41.442 168.917,108.124 40.7,185.494 -235.639,241.448 -277.797,63.834 -21.123,-88.992 41.572,-156.118 108.88,-171.958zm-44.034 -940.971c183.13,-32.592 327.137,102.822 352.238,251.347 31.297,185.186 -102.382,328.569 -250.506,354.205 -185.284,32.067 -328.438,-100.816 -354.949,-250.046 -28.873,-162.531 76.767,-324.103 253.217,-355.506zm362.06 -311.155l206.915 0.942 -0.254 77.4 -207.468 -0.748 0.807 -77.594zm299.708 -302.322c-131.933,0 -263.866,0.035 -395.798,-0.003 -161.733,-0.047 -343.349,36.264 -467.852,126.217 -20.868,15.077 -37.719,23.043 -58.289,40.125 -81.635,67.792 -170.787,158.126 -224.124,265.127 -117.405,235.53 -93.54,407.053 -93.54,692.703l0 1574.409c0,270.885 -22.97,473.681 95.182,691.05 92.55,170.265 236.997,301.161 414.374,370.477 115.489,45.131 202.297,57.773 338.36,57.765 130.562,-0.007 261.124,0 391.687,0l0 -3817.87z"/>
    <path class="fil3" d="M8205.94 2658.735c0.775,-1.184 2.851,-3.371 3.615,-2.227l10.822 -3.887c2.875,-0.207 13.356,3.072 16.393,4.362 109.92,46.7 131.569,194.071 34.882,264.435 -31.511,22.932 -71.546,36.721 -117.914,28.357 -110.042,-19.851 -164.921,-151.005 -93.503,-243.995 2.429,-3.163 2.921,-3.81 5.505,-6.839 7.223,-8.468 12.669,-13.238 21.101,-19.96 26.213,-20.897 79.502,-39.799 109.06,-30.429 8.713,2.763 5.743,1.68 10.752,5.436 -8.008,-0.476 -19.751,-1.815 -27.477,-1.467l-19.916 5.697c7.289,0.566 41.147,1.538 46.68,0.517zm-138.483 54.689c7.193,1.107 5.773,2.487 3.755,-4.579 7.659,1.739 6.214,3.078 3.852,-4.455 7.971,2.195 6.512,3.537 4.02,-4.366 7.736,2.465 6.307,3.79 4.208,-4.058 7.705,2.389 6.457,3.899 4.382,-3.854 8.609,2.405 5.632,3.304 5.632,-6.662 -8.909,1.495 -7.842,-1.271 -5.632,6.662 -7.668,-2.024 -6.573,-3.678 -4.382,3.854 -8.022,-2.409 -6.762,-3.903 -4.208,4.058 -7.975,-2.529 -6.358,-3.707 -4.02,4.366 -7.562,-2.282 -5.819,-3.308 -3.852,4.455 -7.058,-1.833 -5.246,-2.8 -3.755,4.579 -9.367,-4.111 -7.119,-5.281 -5.631,4.926 8.348,0 7.401,2.433 5.631,-4.926zm132.767 230.282c27.224,0.031 10.515,2.756 14.834,-5.493 -24.874,-3.189 -9.724,0.952 -14.834,5.493zm42.757 -275.392c4.39,7.588 -6.647,5.73 7.866,7.025 -1.925,7.545 -2.142,4.219 7.519,2.809 0,-7.693 1.321,-5.047 -7.519,-2.809 0.538,-8.708 10.314,-5.212 -7.866,-7.025zm139.104 -892.274c176.775,-21.343 319.76,114.21 337.544,270.536 20.602,181.104 -113.926,322.439 -272.003,340.076 -180.136,20.097 -320.646,-115.829 -338.382,-271.446 -18.857,-165.456 98.716,-318.143 272.841,-339.166zm141.874 -397.746l-4.324 7.346 -1.477 6.615c1.711,8.032 3.598,6.305 -4.218,6.305 -17.535,11.149 -24.752,27.424 -51.449,40.531 -21.957,10.78 -48.876,16.827 -77.439,14.178 -48.438,-4.493 -99.554,-43.31 -109.55,-74.987l-5.116 -8.054 -3.232 -8.377c-44.645,-97.232 46.15,-201.6 146.695,-192.07 54.597,5.174 88.92,37.149 108.87,70.849 21.702,36.659 28.611,103.229 1.24,137.664zm-295.056 -289.947l-3.668 6.994 -5.928 6.332c2.249,7.571 4.071,6.048 -3.362,6.048 -9.232,16.217 -32.061,35.729 -55.725,44.067l-8.81 6.01c-38.001,5.081 -43.898,5.325 -84.225,4.162 -17.084,-1.433 -4.581,0.454 -9.361,-5.216 -69.5,-18.653 -128.512,-112.471 -80.095,-202.362 17.615,-32.704 44.149,-58.597 89.884,-70.23 40.638,-10.337 99.814,-0.875 120.304,26.156 8.317,1.01 7.193,-1.592 6.116,5.578 6.564,-1.401 5.338,-3.052 5.065,3.212 6.568,-1.168 5.434,-2.751 4.477,3.597 6.304,-0.738 4.684,-1.882 3.457,4.676 6.37,-0.395 4.629,-1.552 3.092,5.157l8.103 4.136 2.228 5.927 2.044 6.729 6.934 6.652c19.474,49.423 24.094,82.154 -0.53,132.375zm600.63 9.481l-3.917 5.827 -32.46 32.901 -5.666 3.864c-44.604,21.46 -49.474,21.799 -106.716,21.027l-10.077 -4.919c-43.208,-7.507 -97.217,-58.939 -97.804,-105.488 -19.467,-18.132 0.229,-69.753 0.237,-69.815 0.222,-1.607 1.032,-1.965 1.625,-2.902 13.609,-70.806 109.99,-127.919 197.366,-85.587 34.328,16.632 58.933,41.017 72.972,83.539 16.72,50.64 2.915,83.754 -15.56,121.553zm-554.145 -434.842l4.583 -6.852 1.674 -6.528c-1.641,-7.386 -3.319,-5.748 3.96,-5.748l1.546 1.935c1.273,-7.464 -1.073,-6.262 5.667,-5.381 -1.627,-6.944 -3.291,-5.834 3.492,-4.669 -1.49,-6.912 -2.837,-5.552 4.077,-4.044 -1.183,-6.781 -2.305,-5.132 4.636,-3.54 -0.949,-6.763 -2.06,-4.994 4.96,-3.425l4.104 -7.852 6.584 -1.618 6.942 -4.49c32.155,-31.277 106.04,-21.601 142.603,0.138 33.427,19.874 68.431,57.066 69.961,118.158 2.525,100.815 -108.19,183.898 -205.785,131.111l-7.547 -3.53c-10.692,-4.44 -12.59,-3.496 -17.435,-15.309 -6.707,1.57 -5.613,3.341 -5.109,-3.014 -6.729,1.279 -5.656,2.974 -4.694,-3.459 -6.718,1.225 -5.345,2.562 -3.972,-4.155 -6.612,1.008 -4.974,2.145 -3.525,-4.658 -6.6,0.836 -4.337,2.012 -5.321,-5.346l-1.486 1.827c-7.374,0 -5.623,1.671 -4.171,-5.877l-1.705 -6.429 -4.29 -7.439c-26.417,-28.625 -26.28,-113.029 0.251,-139.806zm-271.376 -397.511l76.709 0.019 2.83 64.496 62.187 1.523 -0.261 76.61 -63.49 2.575 -1.295 62.694 -77.644 -0.692 1.347 -63.248 -66.347 -1.865 0.789 -77.11 64.263 1.374 0.912 -66.376zm-158.249 3579.987c119.409,4.017 268.626,5.179 387.457,-0.381 110.424,-5.167 219.346,-34.169 306.095,-76.371 174.498,-84.89 296.635,-210.66 383.795,-380.839 103.75,-202.568 80.279,-438.959 80.279,-685.944l0 -1533.301c0,-259.56 23.677,-467.844 -81.517,-684.697 -22.448,-46.277 -46.215,-83.78 -72.211,-121.022 -134.685,-192.95 -374.441,-324.916 -620.683,-334.209 -118.807,-4.484 -264.515,-4.804 -383.215,-0.197l0 3816.961z"/>
    <rect class="fil4 str1" x="213.886" y="1506.725" width="973.667" height="1389.945"/>
    <rect class="fil4 str1" x="7946.775" y="554.222" width="980.723" height="1079.501"/>
    <rect class="fil4 str1" x="8017.334" y="2586.226" width="465.667" height="372.533"/>
   </g>
   <g>
    <circle class="fil5 str2" cx="652.026" cy="942.938" r="310.36"/>
    <circle class="fil5 str2" cx="652.026" cy="945.938" r="240.761"/>
    <line class="fil6 str2" x1="341.666" y1="942.938" x2="411.276" y2= "942.938" />
    <line class="fil6 str2" x1="652.026" y1="632.578" x2="652.026" y2= "705.177" />
    <line class="fil6 str2" x1="892.787" y1="942.938" x2="962.386" y2= "942.938" />
    <line class="fil6 str2" x1="652.026" y1="1186.699" x2="652.026" y2= "1253.298" />
   </g>
   <g>
    <circle class="fil5 str2" cx="8410.526" cy="2077.478" r="310.36"/>
    <circle class="fil5 str2" cx="8410.526" cy="2080.478" r="240.761"/>
    <line class="fil6 str2" x1="8100.166" y1="2077.478" x2="8169.776" y2= "2077.478" />
    <line class="fil6 str2" x1="8410.526" y1="1767.118" x2="8410.526" y2= "1839.717" />
    <line class="fil6 str2" x1="8651.287" y1="2077.478" x2="8720.886" y2= "2077.478" />
    <line class="fil6 str2" x1="8410.526" y1="2321.239" x2="8410.526" y2= "2387.838" />
   </g>
  </g>
 </g>
</svg>
